G04 Layer: TopLayer*
G04 Scale: 100 percent, Rotated: No, Reflected: No *
G04 Dimensions in millimeters *
G04 leading zeros omitted , absolute positions ,3 integer and 3 decimal *
%FSLAX33Y33*%
%MOMM*%
G90*
G71D02*

%ADD11C,0.799998*%
%ADD12C,1.499997*%
%ADD13C,0.699999*%
%ADD14C,0.609600*%
%ADD15R,0.799998X1.799996*%
%ADD16R,1.450010X1.160018*%
%ADD17R,1.498600X2.750007*%

%LPD*%
G54D11*
G01X9144Y1854D02*
G01X9144Y3474D01*
G01X9271Y3601D01*
G01X15875Y5094D02*
G01X15875Y4744D01*
G01X14224Y3093D01*
G01X14224Y1853D01*
G01X4953Y7252D02*
G01X15875Y7252D01*
G54D12*
G01X1524Y1854D02*
G01X4064Y1854D01*
G54D11*
G01X4953Y5093D02*
G01X8191Y5093D01*
G01X8509Y5410D01*
G54D13*
G01X11049Y5409D02*
G01X11049Y4109D01*
G01X11684Y3474D01*
G01X11684Y1853D01*
G54D11*
G01X13208Y4871D02*
G01X12858Y4871D01*
G01X12319Y5410D01*
G01X9779Y5410D02*
G01X9779Y7252D01*
G01X17399Y5125D02*
G01X17399Y4363D01*
G01X15844Y5094D02*
G01X17368Y5094D01*
G01X17399Y5125D01*
G01X4064Y3855D02*
G01X4826Y3855D01*
G01X4953Y5093D02*
G01X4413Y5093D01*
G01X4064Y4744D01*
G01X4064Y3855D01*
G01X4064Y3855D02*
G01X4064Y1854D01*
G01X13208Y4109D02*
G01X13208Y4871D01*
G54D15*
G01X8509Y5410D03*
G01X9779Y5410D03*
G01X11049Y5410D03*
G01X12319Y5410D03*
G54D16*
G01X4953Y5093D03*
G01X4953Y7125D03*
G36*
G01X774Y3229D02*
G01X2273Y3229D01*
G01X2273Y480D01*
G01X774Y480D01*
G01X774Y3229D01*
G37*
G54D17*
G01X4064Y1854D03*
G01X6604Y1854D03*
G01X9144Y1854D03*
G01X11684Y1854D03*
G01X14224Y1854D03*
G01X16764Y1854D03*
G01X19304Y1854D03*
G54D16*
G01X15875Y5094D03*
G01X15875Y7126D03*
G54D14*
G01X4064Y3855D03*
G01X13208Y4871D03*
G01X9271Y3601D03*
G01X17399Y5125D03*
G01X17399Y4363D03*
G01X4826Y3855D03*
G01X13208Y4109D03*
M00*
M02*
