G04 Layer: TopSolderMaskLayer*
G04 Scale: 100 percent, Rotated: No, Reflected: No *
G04 Dimensions in millimeters *
G04 leading zeros omitted , absolute positions ,3 integer and 3 decimal *
%FSLAX33Y33*%
%MOMM*%
G90*
G71D02*


%LPD*%
G36*
G01X8008Y4408D02*
G01X8008Y6412D01*
G01X9011Y6412D01*
G01X9011Y4408D01*
G01X8008Y4408D01*
G37*
G36*
G01X9278Y4408D02*
G01X9278Y6412D01*
G01X10281Y6412D01*
G01X10281Y4408D01*
G01X9278Y4408D01*
G37*
G36*
G01X10548Y4408D02*
G01X10548Y6412D01*
G01X11551Y6412D01*
G01X11551Y4408D01*
G01X10548Y4408D01*
G37*
G36*
G01X11818Y4408D02*
G01X11818Y6412D01*
G01X12821Y6412D01*
G01X12821Y4408D01*
G01X11818Y4408D01*
G37*
G36*
G01X4127Y4411D02*
G01X4127Y5775D01*
G01X5778Y5775D01*
G01X5778Y4411D01*
G01X4127Y4411D01*
G37*
G36*
G01X4127Y6443D02*
G01X4127Y7807D01*
G01X5778Y7807D01*
G01X5778Y6443D01*
G01X4127Y6443D01*
G37*
G36*
G01X673Y380D02*
G01X673Y3331D01*
G01X2374Y3331D01*
G01X2374Y380D01*
G01X673Y380D01*
G37*
G36*
G01X3213Y377D02*
G01X3213Y3331D01*
G01X4914Y3331D01*
G01X4914Y377D01*
G01X3213Y377D01*
G37*
G36*
G01X5753Y377D02*
G01X5753Y3331D01*
G01X7454Y3331D01*
G01X7454Y377D01*
G01X5753Y377D01*
G37*
G36*
G01X8293Y377D02*
G01X8293Y3331D01*
G01X9994Y3331D01*
G01X9994Y377D01*
G01X8293Y377D01*
G37*
G36*
G01X10833Y377D02*
G01X10833Y3331D01*
G01X12534Y3331D01*
G01X12534Y377D01*
G01X10833Y377D01*
G37*
G36*
G01X13373Y377D02*
G01X13373Y3331D01*
G01X15074Y3331D01*
G01X15074Y377D01*
G01X13373Y377D01*
G37*
G36*
G01X15913Y377D02*
G01X15913Y3331D01*
G01X17614Y3331D01*
G01X17614Y377D01*
G01X15913Y377D01*
G37*
G36*
G01X18453Y377D02*
G01X18453Y3331D01*
G01X20154Y3331D01*
G01X20154Y377D01*
G01X18453Y377D01*
G37*
G36*
G01X15049Y4413D02*
G01X15049Y5775D01*
G01X16703Y5775D01*
G01X16703Y4413D01*
G01X15049Y4413D01*
G37*
G36*
G01X15049Y6445D02*
G01X15049Y7807D01*
G01X16703Y7807D01*
G01X16703Y6445D01*
G01X15049Y6445D01*
G37*
M00*
M02*
